<?xml version="1.0" encoding="utf-8"?>
<!-- Generator: Adobe Illustrator 22.0.0, SVG Export Plug-In . SVG Version: 6.00 Build 0)  -->
<svg version="1.1" xmlns="http://www.w3.org/2000/svg" xmlns:xlink="http://www.w3.org/1999/xlink" x="0px" y="0px"
	 viewBox="0 0 392.8 386.9" style="enable-background:new 0 0 392.8 386.9;" xml:space="preserve">
<style type="text/css">
	.st0{display:none;}
	.st1{display:inline;}
</style>
<g id="Layer_1" class="st0">
	<g id="TvHWYl.tif" class="st1">

			<image style="overflow:visible;" width="450" height="427" id="Layer_0_1_" xlink:href="D086DB5C44FB4C3C.png"  transform="matrix(1 0 0 1 433 305)">
		</image>
	</g>
</g>
<g id="Layer_3">
	<g>
		<path d="M389.1,307.5c-10.5-13-12.3-23-14.9-47c-1.9-17.5-7.1-33.4-9.7-40.7c-0.8-2.1-1.8-4-3.1-5.7
			c-8.7-11.4-27.7-83.1-46.7-107.6c-15.5-20.1-27.4-22.3-32-22.2c-1,0-1.7-1.1-1.4-2.2c0.1-0.4,0.3-0.7,0.6-0.9
			c32.7-23.8,21.4-38.7,12.7-46.7c-5.5-5-16.5,0.2-23.9,4.8c-4.3,2.6-10.1,22-12.7,26.7c-5.3,9.9-3.6-15.2-3.7-17.2c0-0.3,0-0.6,0-1
			C249-5,225.5,0,222,5c-17.9,25.5-10.6,45.5-2.7,54.5c1.9,2.2,2.9,3.7,3.3,4.5c4.9,1.5,12.5,6.4,12.5,6.4l44.6,9
			c-0.3-0.1-58.1-3.1-60.9-13.4c-0.2-0.8-0.2-1.3,0-1.7c-1-0.5-3.5-1.6-4.3-2.6c-0.4-0.5-1-0.7-1.6-0.5l-0.8,0.3
			c-2.3,0.9-17.5,1-21.1,1c-0.4,0-0.9-0.2-1.1-0.6c-4.7-6.2-18.9-5.5-19.7-5.4c0,0-0.1,0-0.1,0c-35.9-1-37.4,45.5-45.2,49.5
			c-7.9,4-40.4,30.5-54,51c-20.8,31.5-49.1,71-49.1,74c0,16.1-11.7,46.7-18,61.9c-2.6,6.2-3.9,13-3.9,19.8V324c-0.1-0.1,0,0,0.1,0.2
			c3,4.7,7.5,8,12.5,9.2c12.1,2.9,27.4,11.6,29.6,12.9c0.2,0.1,0.3,0.3,0.5,0.4c38.5,53.7,76.9,35.7,87.4,35.7
			c10.5,0,17.5-12,22.8-8c4.1,3.1,19.3,4.4,25.8,4.8c1.8,0.1,3.6,0,5.4-0.4c6.3-1.3,24.6-3.9,45.8,2.5c18.1,5.5,35.3,6.3,44.3,6.2
			c3.9,0,7.8-1.3,11.2-3.6c19.9-13.8,29.1-13.9,32.4-13.1c1.4,0.3,2.9,0.5,4.3,0.5c6.8-0.2,23.6-1.2,27.7-5.9c5.3-6,24.5-7,32.4-12
			C390,348.5,399.6,320.5,389.1,307.5z"/>
	</g>
</g>
</svg>
